<svg xmlns="http://www.w3.org/2000/svg" xmlns:xlink="http://www.w3.org/1999/xlink" width="500" zoomAndPan="magnify" viewBox="0 0 375 374.999991" height="500" preserveAspectRatio="xMidYMid meet" version="1.0"><defs><g/><clipPath id="7e848613b1"><path d="M 164.492188 89.625 L 208.742188 89.625 L 208.742188 133 L 164.492188 133 Z M 164.492188 89.625 " clip-rule="nonzero"/></clipPath></defs><g fill="#ffffff" fill-opacity="0.2588"><g transform="translate(114.880712, 228.48431)"><g><path d="M 21.546875 -17.953125 C 21.546875 -13.429688 22.707031 -9.671875 25.03125 -6.671875 C 27.363281 -3.679688 30.65625 -1.457031 34.90625 0 L 7.1875 0 C 11.4375 -1.457031 14.625 -3.71875 16.75 -6.78125 C 18.882812 -9.84375 19.953125 -13.566406 19.953125 -17.953125 L 19.953125 -82.1875 C 19.953125 -85.78125 18.617188 -89.003906 15.953125 -91.859375 C 13.296875 -94.722656 10.375 -96.6875 7.1875 -97.75 L 33.921875 -97.75 L 73.015625 -21.140625 L 105.9375 -97.75 L 127.28125 -97.75 C 124.21875 -96.6875 122.15625 -94.925781 121.09375 -92.46875 C 120.03125 -90.007812 119.5 -87.25 119.5 -84.1875 L 119.5 -14.5625 C 119.5 -11.5 120 -8.570312 121 -5.78125 C 122 -2.988281 124.09375 -1.0625 127.28125 0 L 95.5625 0 C 98.882812 -1.0625 101.046875 -2.988281 102.046875 -5.78125 C 103.046875 -8.570312 103.546875 -11.5 103.546875 -14.5625 L 103.546875 -87.78125 L 65.828125 -0.203125 L 21.546875 -87.375 Z M 21.546875 -17.953125 "/></g></g></g><g fill="#e5c5c5" fill-opacity="1"><g transform="translate(113.646387, 227.249985)"><g><path d="M 21.546875 -17.953125 C 21.546875 -13.429688 22.707031 -9.671875 25.03125 -6.671875 C 27.363281 -3.679688 30.65625 -1.457031 34.90625 0 L 7.1875 0 C 11.4375 -1.457031 14.625 -3.71875 16.75 -6.78125 C 18.882812 -9.84375 19.953125 -13.566406 19.953125 -17.953125 L 19.953125 -82.1875 C 19.953125 -85.78125 18.617188 -89.003906 15.953125 -91.859375 C 13.296875 -94.722656 10.375 -96.6875 7.1875 -97.75 L 33.921875 -97.75 L 73.015625 -21.140625 L 105.9375 -97.75 L 127.28125 -97.75 C 124.21875 -96.6875 122.15625 -94.925781 121.09375 -92.46875 C 120.03125 -90.007812 119.5 -87.25 119.5 -84.1875 L 119.5 -14.5625 C 119.5 -11.5 120 -8.570312 121 -5.78125 C 122 -2.988281 124.09375 -1.0625 127.28125 0 L 95.5625 0 C 98.882812 -1.0625 101.046875 -2.988281 102.046875 -5.78125 C 103.046875 -8.570312 103.546875 -11.5 103.546875 -14.5625 L 103.546875 -87.78125 L 65.828125 -0.203125 L 21.546875 -87.375 Z M 21.546875 -17.953125 "/></g></g></g><g fill="#7d5c62" fill-opacity="1"><g transform="translate(115.990718, 216.732144)"><g><path d="M 24 -8.671875 C 24 -8.597656 23.960938 -8.5625 23.890625 -8.5625 C 23.960938 -8.5625 24 -8.597656 24 -8.671875 C 26.78125 -12.285156 29.804688 -15.628906 33.078125 -18.703125 C 36.347656 -21.785156 39.710938 -24.789062 43.171875 -27.71875 C 46.328125 -29.976562 49.5 -32.363281 52.6875 -34.875 C 55.882812 -37.394531 59.320312 -39.519531 63 -41.25 C 63.53125 -41.476562 64.113281 -41.703125 64.75 -41.921875 C 65.382812 -42.148438 66.003906 -42.039062 66.609375 -41.59375 C 66.910156 -40.757812 66.832031 -39.984375 66.375 -39.265625 C 65.925781 -38.554688 65.515625 -37.90625 65.140625 -37.3125 C 64.617188 -36.257812 64.035156 -35.300781 63.390625 -34.4375 C 62.753906 -33.570312 62.113281 -32.6875 61.46875 -31.78125 C 60.832031 -30.882812 60.234375 -29.925781 59.671875 -28.90625 C 59.109375 -27.894531 58.675781 -26.785156 58.375 -25.578125 C 59.65625 -25.660156 60.800781 -25.960938 61.8125 -26.484375 C 62.832031 -27.015625 63.828125 -27.539062 64.796875 -28.0625 C 65.847656 -28.664062 66.863281 -29.226562 67.84375 -29.75 C 68.820312 -30.28125 69.800781 -30.84375 70.78125 -31.4375 C 80.695312 -37.53125 90.742188 -43.675781 100.921875 -49.875 C 111.109375 -56.070312 121.609375 -61.875 132.421875 -67.28125 C 135.054688 -68.5625 137.757812 -69.859375 140.53125 -71.171875 C 143.3125 -72.484375 146.242188 -73.664062 149.328125 -74.71875 C 149.773438 -74.875 150.316406 -75.046875 150.953125 -75.234375 C 151.597656 -75.421875 152.238281 -75.550781 152.875 -75.625 C 153.519531 -75.695312 154.125 -75.695312 154.6875 -75.625 C 155.25 -75.550781 155.644531 -75.328125 155.875 -74.953125 C 156.164062 -74.492188 156.253906 -73.945312 156.140625 -73.3125 C 156.035156 -72.675781 155.8125 -72.054688 155.46875 -71.453125 C 155.132812 -70.847656 154.757812 -70.28125 154.34375 -69.75 C 153.9375 -69.226562 153.617188 -68.820312 153.390625 -68.53125 C 151.285156 -65.519531 149.179688 -62.679688 147.078125 -60.015625 C 144.972656 -57.347656 142.90625 -54.625 140.875 -51.84375 C 138.09375 -48.082031 135.367188 -44.320312 132.703125 -40.5625 C 130.035156 -36.8125 127.390625 -33.019531 124.765625 -29.1875 C 120.859375 -23.40625 117.003906 -17.601562 113.203125 -11.78125 C 109.410156 -5.957031 105.710938 0.0351562 102.109375 6.203125 C 101.578125 7.171875 101.007812 8.179688 100.40625 9.234375 C 99.8125 10.285156 99.210938 11.335938 98.609375 12.390625 C 98.015625 13.523438 97.453125 14.691406 96.921875 15.890625 C 96.398438 17.085938 96.0625 18.289062 95.90625 19.5 C 95.832031 19.945312 95.867188 20.375 96.015625 20.78125 C 96.171875 21.195312 96.0625 21.554688 95.6875 21.859375 C 94.851562 21.710938 94.4375 21.242188 94.4375 20.453125 C 94.4375 19.660156 94.515625 18.96875 94.671875 18.375 C 94.816406 17.695312 95.019531 17.054688 95.28125 16.453125 C 95.550781 15.847656 95.796875 15.320312 96.015625 14.875 C 97.523438 11.34375 99.195312 8.035156 101.03125 4.953125 C 102.875 1.878906 104.695312 -1.125 106.5 -4.0625 C 111.539062 -12.320312 116.6875 -20.25 121.9375 -27.84375 C 125.851562 -33.769531 129.835938 -39.585938 133.890625 -45.296875 C 137.953125 -51.015625 142.160156 -56.65625 146.515625 -62.21875 C 147.191406 -63.1875 147.882812 -64.117188 148.59375 -65.015625 C 149.3125 -65.921875 150.046875 -66.84375 150.796875 -67.78125 C 151.546875 -68.726562 152.222656 -69.6875 152.828125 -70.65625 C 153.429688 -71.632812 153.957031 -72.726562 154.40625 -73.9375 C 153.125 -74.238281 151.878906 -74.179688 150.671875 -73.765625 C 149.472656 -73.347656 148.3125 -72.914062 147.1875 -72.46875 C 146.0625 -72.09375 144.953125 -71.660156 143.859375 -71.171875 C 142.773438 -70.679688 141.707031 -70.210938 140.65625 -69.765625 C 129.988281 -65.023438 119.84375 -59.78125 110.21875 -54.03125 C 100.601562 -48.289062 90.988281 -42.488281 81.375 -36.625 C 78.519531 -34.894531 75.679688 -33.128906 72.859375 -31.328125 C 70.046875 -29.523438 67.132812 -27.835938 64.125 -26.265625 C 63.75 -26.035156 63.242188 -25.769531 62.609375 -25.46875 C 61.972656 -25.164062 61.316406 -24.882812 60.640625 -24.625 C 59.960938 -24.363281 59.300781 -24.210938 58.65625 -24.171875 C 58.019531 -24.140625 57.550781 -24.3125 57.25 -24.6875 C 56.726562 -25.207031 56.671875 -25.9375 57.078125 -26.875 C 57.492188 -27.8125 57.851562 -28.546875 58.15625 -29.078125 C 59.28125 -31.109375 60.519531 -33.039062 61.875 -34.875 C 63.226562 -36.71875 64.351562 -38.617188 65.25 -40.578125 C 62.925781 -39.742188 60.75 -38.671875 58.71875 -37.359375 C 56.6875 -36.046875 54.695312 -34.675781 52.75 -33.25 C 46.882812 -28.96875 41.320312 -24.476562 36.0625 -19.78125 C 30.800781 -15.082031 26.179688 -9.691406 22.203125 -3.609375 C 22.054688 -3.304688 22.09375 -3.078125 22.3125 -2.921875 C 22.539062 -2.773438 22.578125 -2.515625 22.421875 -2.140625 C 21.972656 -2.285156 21.671875 -2.265625 21.515625 -2.078125 C 21.367188 -1.890625 21.238281 -1.664062 21.125 -1.40625 C 21.019531 -1.144531 20.890625 -0.863281 20.734375 -0.5625 C 20.585938 -0.257812 20.328125 -0.109375 19.953125 -0.109375 C 19.722656 -0.710938 19.773438 -1.3125 20.109375 -1.90625 C 20.453125 -2.507812 20.738281 -3.078125 20.96875 -3.609375 C 21.34375 -5.785156 22.015625 -7.660156 22.984375 -9.234375 C 23.960938 -10.816406 25.015625 -12.472656 26.140625 -14.203125 C 28.773438 -18.410156 31.5 -22.46875 34.3125 -26.375 C 37.132812 -30.28125 39.972656 -34.1875 42.828125 -38.09375 C 44.773438 -40.71875 46.707031 -43.304688 48.625 -45.859375 C 50.539062 -48.421875 52.515625 -50.941406 54.546875 -53.421875 C 55.523438 -54.773438 56.5 -56.070312 57.46875 -57.3125 C 58.445312 -58.550781 59.425781 -59.804688 60.40625 -61.078125 C 61.382812 -62.429688 62.359375 -63.75 63.328125 -65.03125 C 64.304688 -66.3125 65.0625 -67.8125 65.59375 -69.53125 C 64.988281 -69.988281 64.367188 -70.160156 63.734375 -70.046875 C 63.097656 -69.929688 62.476562 -69.800781 61.875 -69.65625 C 57.59375 -68.820312 53.550781 -67.632812 49.75 -66.09375 C 45.957031 -64.5625 42.109375 -63.191406 38.203125 -61.984375 C 33.316406 -60.253906 28.453125 -58.453125 23.609375 -56.578125 C 18.765625 -54.703125 13.878906 -52.84375 8.953125 -51 C 4.035156 -49.15625 -0.957031 -47.40625 -6.03125 -45.75 C -11.101562 -44.101562 -16.34375 -42.675781 -21.75 -41.46875 C -23.476562 -41.09375 -25.316406 -40.71875 -27.265625 -40.34375 C -29.222656 -39.96875 -31.234375 -39.703125 -33.296875 -39.546875 C -35.367188 -39.398438 -37.398438 -39.457031 -39.390625 -39.71875 C -41.378906 -39.988281 -43.203125 -40.535156 -44.859375 -41.359375 C -45.304688 -41.429688 -45.71875 -41.710938 -46.09375 -42.203125 C -46.46875 -42.691406 -46.710938 -43.21875 -46.828125 -43.78125 C -46.941406 -44.34375 -46.90625 -44.867188 -46.71875 -45.359375 C -46.53125 -45.847656 -46.097656 -46.128906 -45.421875 -46.203125 C -45.347656 -45.753906 -45.476562 -45.4375 -45.8125 -45.25 C -46.15625 -45.0625 -46.285156 -44.664062 -46.203125 -44.0625 C -46.054688 -43.164062 -45.320312 -42.4375 -44 -41.875 C -42.6875 -41.3125 -41.394531 -40.953125 -40.125 -40.796875 C -38.625 -40.566406 -37.101562 -40.488281 -35.5625 -40.5625 C -34.019531 -40.644531 -32.609375 -40.757812 -31.328125 -40.90625 C -28.328125 -41.28125 -25.625 -41.75 -23.21875 -42.3125 C -20.8125 -42.882812 -18.40625 -43.503906 -16 -44.171875 C -11.039062 -45.523438 -6.25 -46.988281 -1.625 -48.5625 C 2.988281 -50.144531 7.550781 -51.742188 12.0625 -53.359375 C 16.570312 -54.972656 21.0625 -56.644531 25.53125 -58.375 C 30 -60.101562 34.523438 -61.832031 39.109375 -63.5625 C 42.410156 -64.84375 45.789062 -66.117188 49.25 -67.390625 C 52.707031 -68.671875 56.238281 -69.800781 59.84375 -70.78125 C 60.375 -70.925781 60.992188 -71.070312 61.703125 -71.21875 C 62.421875 -71.375 63.113281 -71.46875 63.78125 -71.5 C 64.457031 -71.539062 65.097656 -71.46875 65.703125 -71.28125 C 66.304688 -71.09375 66.796875 -70.695312 67.171875 -70.09375 C 67.097656 -68.375 66.570312 -66.835938 65.59375 -65.484375 C 64.613281 -64.128906 63.675781 -62.851562 62.78125 -61.65625 C 59.925781 -57.820312 57.050781 -54.140625 54.15625 -50.609375 C 51.257812 -47.078125 48.421875 -43.394531 45.640625 -39.5625 C 41.890625 -34.519531 38.171875 -29.484375 34.484375 -24.453125 C 30.804688 -19.421875 27.3125 -14.160156 24 -8.671875 Z M 24 -8.671875 "/></g></g></g><g fill="#936d71" fill-opacity="1"><g transform="translate(54.131408, 203.849883)"><g><path d="M 13.9375 4.375 C 13.769531 4.382812 13.609375 4.394531 13.453125 4.40625 C 13.304688 4.414062 13.15625 4.421875 13 4.421875 C 11.875 4.421875 10.894531 4.160156 10.0625 3.640625 C 9.226562 3.117188 8.488281 2.4375 7.84375 1.59375 C 7.195312 0.757812 6.625 -0.175781 6.125 -1.21875 C 5.625 -2.269531 5.144531 -3.328125 4.6875 -4.390625 C 4.226562 -5.460938 3.769531 -6.488281 3.3125 -7.46875 C 2.851562 -8.457031 2.335938 -9.300781 1.765625 -10 L 1.765625 -1.96875 C 1.765625 -1.46875 1.898438 -1.050781 2.171875 -0.71875 C 2.441406 -0.394531 2.8125 -0.15625 3.28125 0 L 0.234375 0 C 0.691406 -0.144531 1.03125 -0.390625 1.25 -0.734375 C 1.476562 -1.085938 1.59375 -1.5 1.59375 -1.96875 L 1.59375 -10.171875 C 1.363281 -10.472656 1.09375 -10.769531 0.78125 -11.0625 C 0.476562 -11.351562 0.144531 -11.613281 -0.21875 -11.84375 C -0.582031 -12.082031 -0.960938 -12.269531 -1.359375 -12.40625 C -1.753906 -12.550781 -2.144531 -12.625 -2.53125 -12.625 C -2.84375 -12.625 -3.15625 -12.597656 -3.46875 -12.546875 C -3.78125 -12.492188 -4.082031 -12.429688 -4.375 -12.359375 L -4.4375 -12.515625 C -3.707031 -12.710938 -3 -12.8125 -2.3125 -12.8125 C -1.382812 -12.8125 -0.546875 -12.671875 0.203125 -12.390625 C 0.953125 -12.109375 1.628906 -11.722656 2.234375 -11.234375 C 2.847656 -10.742188 3.394531 -10.171875 3.875 -9.515625 C 4.351562 -8.867188 4.789062 -8.1875 5.1875 -7.46875 C 5.59375 -6.75 5.96875 -6 6.3125 -5.21875 C 6.65625 -4.445312 6.976562 -3.707031 7.28125 -3 L 11.03125 -10.71875 L 13.359375 -10.71875 C 13.023438 -10.601562 12.800781 -10.40625 12.6875 -10.125 C 12.570312 -9.851562 12.515625 -9.554688 12.515625 -9.234375 L 12.515625 -1.625 C 12.515625 -1.28125 12.566406 -0.953125 12.671875 -0.640625 C 12.785156 -0.328125 13.015625 -0.113281 13.359375 0 L 9.90625 0 C 10.257812 -0.113281 10.488281 -0.320312 10.59375 -0.625 C 10.707031 -0.9375 10.765625 -1.257812 10.765625 -1.59375 L 10.765625 -9.859375 L 7.34375 -2.796875 C 7.507812 -2.398438 7.6875 -1.953125 7.875 -1.453125 C 8.0625 -0.960938 8.273438 -0.460938 8.515625 0.046875 C 8.753906 0.566406 9.019531 1.078125 9.3125 1.578125 C 9.601562 2.085938 9.925781 2.535156 10.28125 2.921875 C 10.644531 3.304688 11.046875 3.617188 11.484375 3.859375 C 11.921875 4.097656 12.394531 4.21875 12.90625 4.21875 C 13.0625 4.21875 13.226562 4.210938 13.40625 4.203125 C 13.582031 4.203125 13.75 4.1875 13.90625 4.15625 Z M 13.9375 4.375 "/></g></g></g><g fill="#936d71" fill-opacity="1"><g transform="translate(67.448508, 203.849883)"><g><path d="M 2.453125 -0.59375 C 2.453125 -0.0078125 2.410156 0.546875 2.328125 1.078125 C 2.242188 1.609375 2.09375 2.101562 1.875 2.5625 C 1.65625 3.03125 1.359375 3.441406 0.984375 3.796875 C 0.609375 4.148438 0.117188 4.4375 -0.484375 4.65625 L -0.5625 4.46875 C 0.207031 4.15625 0.765625 3.710938 1.109375 3.140625 C 1.460938 2.566406 1.640625 1.867188 1.640625 1.046875 C 1.640625 0.578125 1.59375 0.113281 1.5 -0.34375 C 1.414062 -0.800781 1.320312 -1.253906 1.21875 -1.703125 C 1.125 -2.160156 1.03125 -2.617188 0.9375 -3.078125 C 0.851562 -3.535156 0.8125 -4 0.8125 -4.46875 C 0.8125 -5.050781 0.882812 -5.601562 1.03125 -6.125 C 0.09375 -6.113281 -0.738281 -5.765625 -1.46875 -5.078125 L -1.6875 -5.09375 C -1.289062 -5.476562 -0.863281 -5.78125 -0.40625 -6 C 0.0507812 -6.226562 0.554688 -6.375 1.109375 -6.4375 C 1.566406 -7.9375 2.28125 -9.023438 3.25 -9.703125 C 4.226562 -10.378906 5.492188 -10.71875 7.046875 -10.71875 L 9.53125 -10.71875 C 9.1875 -10.601562 8.953125 -10.410156 8.828125 -10.140625 C 8.710938 -9.867188 8.65625 -9.566406 8.65625 -9.234375 L 8.65625 -1.59375 C 8.65625 -1.257812 8.710938 -0.9375 8.828125 -0.625 C 8.953125 -0.320312 9.1875 -0.113281 9.53125 0 L 6.0625 0 C 6.320312 -0.0820312 6.515625 -0.222656 6.640625 -0.421875 C 6.765625 -0.617188 6.847656 -0.84375 6.890625 -1.09375 C 6.929688 -1.351562 6.945312 -1.613281 6.9375 -1.875 C 6.9375 -2.144531 6.9375 -2.390625 6.9375 -2.609375 C 6.9375 -2.765625 6.929688 -2.921875 6.921875 -3.078125 C 6.910156 -3.242188 6.878906 -3.398438 6.828125 -3.546875 C 6.648438 -3.953125 6.40625 -4.304688 6.09375 -4.609375 C 5.78125 -4.921875 5.425781 -5.1875 5.03125 -5.40625 C 4.632812 -5.625 4.222656 -5.789062 3.796875 -5.90625 C 3.367188 -6.019531 2.941406 -6.085938 2.515625 -6.109375 C 2.453125 -5.765625 2.398438 -5.414062 2.359375 -5.0625 C 2.328125 -4.71875 2.3125 -4.375 2.3125 -4.03125 C 2.3125 -3.457031 2.332031 -2.878906 2.375 -2.296875 C 2.425781 -1.722656 2.453125 -1.15625 2.453125 -0.59375 Z M 2.578125 -6.390625 C 3.015625 -6.359375 3.445312 -6.28125 3.875 -6.15625 C 4.3125 -6.03125 4.71875 -5.859375 5.09375 -5.640625 C 5.476562 -5.421875 5.828125 -5.15625 6.140625 -4.84375 C 6.453125 -4.53125 6.707031 -4.175781 6.90625 -3.78125 L 6.90625 -9.3125 C 6.90625 -9.445312 6.898438 -9.578125 6.890625 -9.703125 C 6.890625 -9.835938 6.867188 -9.960938 6.828125 -10.078125 C 6.785156 -10.203125 6.710938 -10.300781 6.609375 -10.375 C 6.515625 -10.445312 6.382812 -10.484375 6.21875 -10.484375 C 5.6875 -10.484375 5.21875 -10.347656 4.8125 -10.078125 C 4.40625 -9.816406 4.050781 -9.484375 3.75 -9.078125 C 3.445312 -8.679688 3.195312 -8.242188 3 -7.765625 C 2.8125 -7.285156 2.671875 -6.828125 2.578125 -6.390625 Z M 2.578125 -6.390625 "/></g></g></g><g fill="#936d71" fill-opacity="1"><g transform="translate(77.507395, 203.849883)"><g><path d="M 16.578125 4.390625 C 16.210938 4.441406 15.847656 4.46875 15.484375 4.46875 C 14.316406 4.46875 13.265625 4.21875 12.328125 3.71875 C 11.390625 3.21875 10.53125 2.570312 9.75 1.78125 C 8.976562 0.988281 8.269531 0.0820312 7.625 -0.9375 C 6.976562 -1.957031 6.363281 -2.992188 5.78125 -4.046875 C 5.195312 -5.109375 4.617188 -6.132812 4.046875 -7.125 C 3.472656 -8.125 2.882812 -9 2.28125 -9.75 L 2.25 -1.96875 C 2.25 -1.5 2.378906 -1.085938 2.640625 -0.734375 C 2.910156 -0.390625 3.269531 -0.144531 3.71875 0 L 0.703125 0 C 1.148438 -0.144531 1.492188 -0.390625 1.734375 -0.734375 C 1.972656 -1.085938 2.09375 -1.5 2.09375 -1.96875 L 2.09375 -9.953125 C 1.46875 -10.710938 0.742188 -11.335938 -0.078125 -11.828125 C -0.898438 -12.328125 -1.820312 -12.578125 -2.84375 -12.578125 C -3.53125 -12.578125 -4.226562 -12.5 -4.9375 -12.34375 L -5.015625 -12.484375 C -4.191406 -12.691406 -3.394531 -12.796875 -2.625 -12.796875 C -1.5625 -12.796875 -0.585938 -12.628906 0.296875 -12.296875 C 1.179688 -11.972656 1.988281 -11.53125 2.71875 -10.96875 C 3.457031 -10.40625 4.132812 -9.75 4.75 -9 C 5.363281 -8.257812 5.925781 -7.472656 6.4375 -6.640625 C 6.957031 -5.816406 7.4375 -4.96875 7.875 -4.09375 C 8.320312 -3.21875 8.742188 -2.367188 9.140625 -1.546875 L 9.140625 -8.765625 C 9.140625 -9.785156 8.648438 -10.441406 7.671875 -10.734375 L 10.71875 -10.734375 C 10.25 -10.585938 9.894531 -10.34375 9.65625 -10 C 9.425781 -9.664062 9.3125 -9.253906 9.3125 -8.765625 L 9.3125 -1.21875 C 9.625 -0.65625 9.972656 -0.0507812 10.359375 0.59375 C 10.753906 1.25 11.203125 1.84375 11.703125 2.375 C 12.203125 2.914062 12.753906 3.363281 13.359375 3.71875 C 13.972656 4.082031 14.644531 4.265625 15.375 4.265625 C 15.582031 4.265625 15.78125 4.257812 15.96875 4.25 C 16.15625 4.25 16.351562 4.234375 16.5625 4.203125 Z M 16.578125 4.390625 "/></g></g></g><g fill="#936d71" fill-opacity="1"><g transform="translate(88.2879, 203.849883)"><g><path d="M 11.59375 -5.359375 C 11.59375 -4.617188 11.445312 -3.921875 11.15625 -3.265625 C 10.875 -2.609375 10.488281 -2.035156 10 -1.546875 C 9.519531 -1.054688 8.953125 -0.664062 8.296875 -0.375 C 7.640625 -0.09375 6.9375 0.046875 6.1875 0.046875 C 5.445312 0.046875 4.75 -0.09375 4.09375 -0.375 C 3.4375 -0.664062 2.863281 -1.054688 2.375 -1.546875 C 1.882812 -2.035156 1.492188 -2.609375 1.203125 -3.265625 C 0.921875 -3.921875 0.78125 -4.617188 0.78125 -5.359375 C 0.78125 -6.097656 0.921875 -6.796875 1.203125 -7.453125 C 1.492188 -8.109375 1.882812 -8.679688 2.375 -9.171875 C 2.863281 -9.660156 3.4375 -10.046875 4.09375 -10.328125 C 4.75 -10.617188 5.445312 -10.765625 6.1875 -10.765625 C 6.9375 -10.765625 7.640625 -10.617188 8.296875 -10.328125 C 8.953125 -10.046875 9.519531 -9.660156 10 -9.171875 C 10.488281 -8.679688 10.875 -8.109375 11.15625 -7.453125 C 11.445312 -6.796875 11.59375 -6.097656 11.59375 -5.359375 Z M 2.75 -5.625 C 2.75 -5.082031 2.816406 -4.484375 2.953125 -3.828125 C 3.097656 -3.179688 3.316406 -2.582031 3.609375 -2.03125 C 3.910156 -1.476562 4.296875 -1.015625 4.765625 -0.640625 C 5.234375 -0.273438 5.800781 -0.09375 6.46875 -0.09375 C 7.070312 -0.09375 7.582031 -0.257812 8 -0.59375 C 8.414062 -0.9375 8.75 -1.359375 9 -1.859375 C 9.257812 -2.367188 9.445312 -2.914062 9.5625 -3.5 C 9.675781 -4.082031 9.734375 -4.613281 9.734375 -5.09375 C 9.734375 -5.625 9.648438 -6.203125 9.484375 -6.828125 C 9.328125 -7.460938 9.09375 -8.0625 8.78125 -8.625 C 8.46875 -9.1875 8.070312 -9.65625 7.59375 -10.03125 C 7.125 -10.40625 6.578125 -10.59375 5.953125 -10.59375 C 5.347656 -10.59375 4.84375 -10.421875 4.4375 -10.078125 C 4.03125 -9.742188 3.703125 -9.328125 3.453125 -8.828125 C 3.203125 -8.328125 3.019531 -7.785156 2.90625 -7.203125 C 2.800781 -6.628906 2.75 -6.101562 2.75 -5.625 Z M 2.75 -5.625 "/></g></g></g><g fill="#936d71" fill-opacity="1"><g transform="translate(101.036446, 203.849883)"><g><path d="M 19.515625 1.734375 C 18.796875 2.296875 18.066406 2.738281 17.328125 3.0625 C 16.597656 3.394531 15.765625 3.5625 14.828125 3.5625 C 14.191406 3.5625 13.5625 3.472656 12.9375 3.296875 C 12.320312 3.128906 11.707031 2.910156 11.09375 2.640625 C 10.476562 2.378906 9.859375 2.09375 9.234375 1.78125 C 8.609375 1.46875 7.957031 1.179688 7.28125 0.921875 C 6.613281 0.660156 5.914062 0.441406 5.1875 0.265625 C 4.46875 0.0859375 3.71875 0 2.9375 0 L 0.75 0 C 1.113281 -0.101562 1.347656 -0.3125 1.453125 -0.625 C 1.566406 -0.945312 1.625 -1.28125 1.625 -1.625 L 1.625 -9.234375 C 1.625 -9.554688 1.5625 -9.859375 1.4375 -10.140625 C 1.3125 -10.421875 1.082031 -10.613281 0.75 -10.71875 L 8.3125 -10.71875 L 8.859375 -8.3125 C 8.421875 -9.113281 7.835938 -9.6875 7.109375 -10.03125 C 6.378906 -10.375 5.570312 -10.546875 4.6875 -10.546875 L 3.34375 -10.546875 L 3.34375 -5.53125 L 3.8125 -5.53125 C 4.40625 -5.53125 4.921875 -5.617188 5.359375 -5.796875 C 5.804688 -5.984375 6.132812 -6.390625 6.34375 -7.015625 L 6.34375 -4 C 6.164062 -4.53125 5.875 -4.890625 5.46875 -5.078125 C 5.0625 -5.265625 4.601562 -5.359375 4.09375 -5.359375 L 3.34375 -5.359375 L 3.34375 -0.21875 C 4.425781 -0.21875 5.476562 -0.0703125 6.5 0.21875 C 7.519531 0.507812 8.535156 0.828125 9.546875 1.171875 C 10.554688 1.515625 11.570312 1.832031 12.59375 2.125 C 13.613281 2.414062 14.664062 2.5625 15.75 2.5625 C 16.414062 2.5625 17.046875 2.488281 17.640625 2.34375 C 18.242188 2.195312 18.835938 1.957031 19.421875 1.625 Z M 19.515625 1.734375 "/></g></g></g><g fill="#936d71" fill-opacity="1"><g transform="translate(110.308117, 203.849883)"><g><path d="M 13.890625 1.765625 C 13.421875 2.148438 12.925781 2.472656 12.40625 2.734375 C 11.894531 2.992188 11.328125 3.125 10.703125 3.125 C 10.210938 3.125 9.765625 3.046875 9.359375 2.890625 C 8.960938 2.742188 8.578125 2.550781 8.203125 2.3125 C 7.828125 2.082031 7.445312 1.832031 7.0625 1.5625 C 6.6875 1.289062 6.285156 1.035156 5.859375 0.796875 C 5.441406 0.566406 4.988281 0.375 4.5 0.21875 C 4.007812 0.0703125 3.460938 0 2.859375 0 L 0.71875 0 C 1.082031 -0.0820312 1.320312 -0.285156 1.4375 -0.609375 C 1.5625 -0.941406 1.625 -1.269531 1.625 -1.59375 L 1.625 -9.234375 C 1.625 -9.554688 1.5625 -9.863281 1.4375 -10.15625 C 1.3125 -10.445312 1.070312 -10.632812 0.71875 -10.71875 L 4.21875 -10.71875 C 3.875 -10.632812 3.640625 -10.445312 3.515625 -10.15625 C 3.398438 -9.863281 3.34375 -9.554688 3.34375 -9.234375 L 3.34375 -0.203125 C 4.0625 -0.171875 4.753906 -0.03125 5.421875 0.21875 C 6.097656 0.476562 6.765625 0.753906 7.421875 1.046875 C 8.085938 1.335938 8.75 1.597656 9.40625 1.828125 C 10.070312 2.066406 10.757812 2.1875 11.46875 2.1875 C 11.882812 2.1875 12.28125 2.148438 12.65625 2.078125 C 13.039062 2.015625 13.421875 1.890625 13.796875 1.703125 Z M 13.890625 1.765625 "/></g></g></g><g fill="#936d71" fill-opacity="1"><g transform="translate(115.949847, 203.849883)"><g><path d="M 2.453125 -0.59375 C 2.453125 -0.0078125 2.410156 0.546875 2.328125 1.078125 C 2.242188 1.609375 2.09375 2.101562 1.875 2.5625 C 1.65625 3.03125 1.359375 3.441406 0.984375 3.796875 C 0.609375 4.148438 0.117188 4.4375 -0.484375 4.65625 L -0.5625 4.46875 C 0.207031 4.15625 0.765625 3.710938 1.109375 3.140625 C 1.460938 2.566406 1.640625 1.867188 1.640625 1.046875 C 1.640625 0.578125 1.59375 0.113281 1.5 -0.34375 C 1.414062 -0.800781 1.320312 -1.253906 1.21875 -1.703125 C 1.125 -2.160156 1.03125 -2.617188 0.9375 -3.078125 C 0.851562 -3.535156 0.8125 -4 0.8125 -4.46875 C 0.8125 -5.050781 0.882812 -5.601562 1.03125 -6.125 C 0.09375 -6.113281 -0.738281 -5.765625 -1.46875 -5.078125 L -1.6875 -5.09375 C -1.289062 -5.476562 -0.863281 -5.78125 -0.40625 -6 C 0.0507812 -6.226562 0.554688 -6.375 1.109375 -6.4375 C 1.566406 -7.9375 2.28125 -9.023438 3.25 -9.703125 C 4.226562 -10.378906 5.492188 -10.71875 7.046875 -10.71875 L 9.53125 -10.71875 C 9.1875 -10.601562 8.953125 -10.410156 8.828125 -10.140625 C 8.710938 -9.867188 8.65625 -9.566406 8.65625 -9.234375 L 8.65625 -1.59375 C 8.65625 -1.257812 8.710938 -0.9375 8.828125 -0.625 C 8.953125 -0.320312 9.1875 -0.113281 9.53125 0 L 6.0625 0 C 6.320312 -0.0820312 6.515625 -0.222656 6.640625 -0.421875 C 6.765625 -0.617188 6.847656 -0.84375 6.890625 -1.09375 C 6.929688 -1.351562 6.945312 -1.613281 6.9375 -1.875 C 6.9375 -2.144531 6.9375 -2.390625 6.9375 -2.609375 C 6.9375 -2.765625 6.929688 -2.921875 6.921875 -3.078125 C 6.910156 -3.242188 6.878906 -3.398438 6.828125 -3.546875 C 6.648438 -3.953125 6.40625 -4.304688 6.09375 -4.609375 C 5.78125 -4.921875 5.425781 -5.1875 5.03125 -5.40625 C 4.632812 -5.625 4.222656 -5.789062 3.796875 -5.90625 C 3.367188 -6.019531 2.941406 -6.085938 2.515625 -6.109375 C 2.453125 -5.765625 2.398438 -5.414062 2.359375 -5.0625 C 2.328125 -4.71875 2.3125 -4.375 2.3125 -4.03125 C 2.3125 -3.457031 2.332031 -2.878906 2.375 -2.296875 C 2.425781 -1.722656 2.453125 -1.15625 2.453125 -0.59375 Z M 2.578125 -6.390625 C 3.015625 -6.359375 3.445312 -6.28125 3.875 -6.15625 C 4.3125 -6.03125 4.71875 -5.859375 5.09375 -5.640625 C 5.476562 -5.421875 5.828125 -5.15625 6.140625 -4.84375 C 6.453125 -4.53125 6.707031 -4.175781 6.90625 -3.78125 L 6.90625 -9.3125 C 6.90625 -9.445312 6.898438 -9.578125 6.890625 -9.703125 C 6.890625 -9.835938 6.867188 -9.960938 6.828125 -10.078125 C 6.785156 -10.203125 6.710938 -10.300781 6.609375 -10.375 C 6.515625 -10.445312 6.382812 -10.484375 6.21875 -10.484375 C 5.6875 -10.484375 5.21875 -10.347656 4.8125 -10.078125 C 4.40625 -9.816406 4.050781 -9.484375 3.75 -9.078125 C 3.445312 -8.679688 3.195312 -8.242188 3 -7.765625 C 2.8125 -7.285156 2.671875 -6.828125 2.578125 -6.390625 Z M 2.578125 -6.390625 "/></g></g></g><g fill="#936d71" fill-opacity="1"><g transform="translate(250.236227, 205.37445)"><g><path d="M 18.359375 0.75 C 19.347656 0.75 20.316406 0.96875 21.265625 1.40625 C 22.222656 1.84375 23.050781 2.410156 23.75 3.109375 L 23.671875 3.1875 C 22.972656 2.582031 22.195312 2.164062 21.34375 1.9375 C 20.488281 1.707031 19.609375 1.59375 18.703125 1.59375 C 18.035156 1.59375 17.359375 1.632812 16.671875 1.71875 C 15.992188 1.8125 15.320312 1.90625 14.65625 2 C 13.988281 2.09375 13.316406 2.179688 12.640625 2.265625 C 11.972656 2.359375 11.296875 2.40625 10.609375 2.40625 C 9.628906 2.40625 8.671875 2.296875 7.734375 2.078125 C 6.804688 1.867188 5.9375 1.546875 5.125 1.109375 C 4.320312 0.671875 3.597656 0.113281 2.953125 -0.5625 C 2.304688 -1.238281 1.773438 -2.039062 1.359375 -2.96875 C 0.847656 -4.113281 0.59375 -5.296875 0.59375 -6.515625 C 0.59375 -7.460938 0.773438 -8.332031 1.140625 -9.125 C 1.503906 -9.925781 1.988281 -10.609375 2.59375 -11.171875 C 3.207031 -11.742188 3.925781 -12.191406 4.75 -12.515625 C 5.582031 -12.835938 6.457031 -13 7.375 -13 C 7.59375 -13 7.820312 -12.984375 8.0625 -12.953125 C 8.3125 -12.929688 8.550781 -12.9375 8.78125 -12.96875 C 9.019531 -13 9.238281 -13.066406 9.4375 -13.171875 C 9.632812 -13.273438 9.789062 -13.457031 9.90625 -13.71875 L 10.4375 -10.59375 C 10.320312 -10.882812 10.15625 -11.160156 9.9375 -11.421875 C 9.71875 -11.679688 9.472656 -11.914062 9.203125 -12.125 C 8.929688 -12.34375 8.640625 -12.507812 8.328125 -12.625 C 8.015625 -12.75 7.695312 -12.8125 7.375 -12.8125 C 6.457031 -12.8125 5.6875 -12.632812 5.0625 -12.28125 C 4.445312 -11.925781 3.953125 -11.453125 3.578125 -10.859375 C 3.203125 -10.265625 2.9375 -9.585938 2.78125 -8.828125 C 2.632812 -8.078125 2.5625 -7.304688 2.5625 -6.515625 C 2.5625 -5.316406 2.71875 -4.1875 3.03125 -3.125 C 3.351562 -2.070312 3.835938 -1.148438 4.484375 -0.359375 C 5.128906 0.429688 5.9375 1.050781 6.90625 1.5 C 7.875 1.957031 9 2.1875 10.28125 2.1875 C 10.976562 2.1875 11.660156 2.109375 12.328125 1.953125 C 12.992188 1.804688 13.65625 1.644531 14.3125 1.46875 C 14.976562 1.289062 15.640625 1.125 16.296875 0.96875 C 16.960938 0.820312 17.648438 0.75 18.359375 0.75 Z M 18.359375 0.75 "/></g></g></g><g fill="#936d71" fill-opacity="1"><g transform="translate(257.911596, 205.37445)"><g><path d="M 2.453125 -0.59375 C 2.453125 -0.0078125 2.410156 0.546875 2.328125 1.078125 C 2.242188 1.609375 2.09375 2.101562 1.875 2.5625 C 1.65625 3.03125 1.359375 3.441406 0.984375 3.796875 C 0.609375 4.148438 0.117188 4.4375 -0.484375 4.65625 L -0.5625 4.46875 C 0.207031 4.15625 0.765625 3.710938 1.109375 3.140625 C 1.460938 2.566406 1.640625 1.867188 1.640625 1.046875 C 1.640625 0.578125 1.59375 0.113281 1.5 -0.34375 C 1.414062 -0.800781 1.320312 -1.253906 1.21875 -1.703125 C 1.125 -2.160156 1.03125 -2.617188 0.9375 -3.078125 C 0.851562 -3.535156 0.8125 -4 0.8125 -4.46875 C 0.8125 -5.050781 0.882812 -5.601562 1.03125 -6.125 C 0.09375 -6.113281 -0.738281 -5.765625 -1.46875 -5.078125 L -1.6875 -5.09375 C -1.289062 -5.476562 -0.863281 -5.78125 -0.40625 -6 C 0.0507812 -6.226562 0.554688 -6.375 1.109375 -6.4375 C 1.566406 -7.9375 2.28125 -9.023438 3.25 -9.703125 C 4.226562 -10.378906 5.492188 -10.71875 7.046875 -10.71875 L 9.53125 -10.71875 C 9.1875 -10.601562 8.953125 -10.410156 8.828125 -10.140625 C 8.710938 -9.867188 8.65625 -9.566406 8.65625 -9.234375 L 8.65625 -1.59375 C 8.65625 -1.257812 8.710938 -0.9375 8.828125 -0.625 C 8.953125 -0.320312 9.1875 -0.113281 9.53125 0 L 6.0625 0 C 6.320312 -0.0820312 6.515625 -0.222656 6.640625 -0.421875 C 6.765625 -0.617188 6.847656 -0.84375 6.890625 -1.09375 C 6.929688 -1.351562 6.945312 -1.613281 6.9375 -1.875 C 6.9375 -2.144531 6.9375 -2.390625 6.9375 -2.609375 C 6.9375 -2.765625 6.929688 -2.921875 6.921875 -3.078125 C 6.910156 -3.242188 6.878906 -3.398438 6.828125 -3.546875 C 6.648438 -3.953125 6.40625 -4.304688 6.09375 -4.609375 C 5.78125 -4.921875 5.425781 -5.1875 5.03125 -5.40625 C 4.632812 -5.625 4.222656 -5.789062 3.796875 -5.90625 C 3.367188 -6.019531 2.941406 -6.085938 2.515625 -6.109375 C 2.453125 -5.765625 2.398438 -5.414062 2.359375 -5.0625 C 2.328125 -4.71875 2.3125 -4.375 2.3125 -4.03125 C 2.3125 -3.457031 2.332031 -2.878906 2.375 -2.296875 C 2.425781 -1.722656 2.453125 -1.15625 2.453125 -0.59375 Z M 2.578125 -6.390625 C 3.015625 -6.359375 3.445312 -6.28125 3.875 -6.15625 C 4.3125 -6.03125 4.71875 -5.859375 5.09375 -5.640625 C 5.476562 -5.421875 5.828125 -5.15625 6.140625 -4.84375 C 6.453125 -4.53125 6.707031 -4.175781 6.90625 -3.78125 L 6.90625 -9.3125 C 6.90625 -9.445312 6.898438 -9.578125 6.890625 -9.703125 C 6.890625 -9.835938 6.867188 -9.960938 6.828125 -10.078125 C 6.785156 -10.203125 6.710938 -10.300781 6.609375 -10.375 C 6.515625 -10.445312 6.382812 -10.484375 6.21875 -10.484375 C 5.6875 -10.484375 5.21875 -10.347656 4.8125 -10.078125 C 4.40625 -9.816406 4.050781 -9.484375 3.75 -9.078125 C 3.445312 -8.679688 3.195312 -8.242188 3 -7.765625 C 2.8125 -7.285156 2.671875 -6.828125 2.578125 -6.390625 Z M 2.578125 -6.390625 "/></g></g></g><g fill="#936d71" fill-opacity="1"><g transform="translate(267.970483, 205.37445)"><g><path d="M 13.9375 4.375 C 13.769531 4.382812 13.609375 4.394531 13.453125 4.40625 C 13.304688 4.414062 13.15625 4.421875 13 4.421875 C 11.875 4.421875 10.894531 4.160156 10.0625 3.640625 C 9.226562 3.117188 8.488281 2.4375 7.84375 1.59375 C 7.195312 0.757812 6.625 -0.175781 6.125 -1.21875 C 5.625 -2.269531 5.144531 -3.328125 4.6875 -4.390625 C 4.226562 -5.460938 3.769531 -6.488281 3.3125 -7.46875 C 2.851562 -8.457031 2.335938 -9.300781 1.765625 -10 L 1.765625 -1.96875 C 1.765625 -1.46875 1.898438 -1.050781 2.171875 -0.71875 C 2.441406 -0.394531 2.8125 -0.15625 3.28125 0 L 0.234375 0 C 0.691406 -0.144531 1.03125 -0.390625 1.25 -0.734375 C 1.476562 -1.085938 1.59375 -1.5 1.59375 -1.96875 L 1.59375 -10.171875 C 1.363281 -10.472656 1.09375 -10.769531 0.78125 -11.0625 C 0.476562 -11.351562 0.144531 -11.613281 -0.21875 -11.84375 C -0.582031 -12.082031 -0.960938 -12.269531 -1.359375 -12.40625 C -1.753906 -12.550781 -2.144531 -12.625 -2.53125 -12.625 C -2.84375 -12.625 -3.15625 -12.597656 -3.46875 -12.546875 C -3.78125 -12.492188 -4.082031 -12.429688 -4.375 -12.359375 L -4.4375 -12.515625 C -3.707031 -12.710938 -3 -12.8125 -2.3125 -12.8125 C -1.382812 -12.8125 -0.546875 -12.671875 0.203125 -12.390625 C 0.953125 -12.109375 1.628906 -11.722656 2.234375 -11.234375 C 2.847656 -10.742188 3.394531 -10.171875 3.875 -9.515625 C 4.351562 -8.867188 4.789062 -8.1875 5.1875 -7.46875 C 5.59375 -6.75 5.96875 -6 6.3125 -5.21875 C 6.65625 -4.445312 6.976562 -3.707031 7.28125 -3 L 11.03125 -10.71875 L 13.359375 -10.71875 C 13.023438 -10.601562 12.800781 -10.40625 12.6875 -10.125 C 12.570312 -9.851562 12.515625 -9.554688 12.515625 -9.234375 L 12.515625 -1.625 C 12.515625 -1.28125 12.566406 -0.953125 12.671875 -0.640625 C 12.785156 -0.328125 13.015625 -0.113281 13.359375 0 L 9.90625 0 C 10.257812 -0.113281 10.488281 -0.320312 10.59375 -0.625 C 10.707031 -0.9375 10.765625 -1.257812 10.765625 -1.59375 L 10.765625 -9.859375 L 7.34375 -2.796875 C 7.507812 -2.398438 7.6875 -1.953125 7.875 -1.453125 C 8.0625 -0.960938 8.273438 -0.460938 8.515625 0.046875 C 8.753906 0.566406 9.019531 1.078125 9.3125 1.578125 C 9.601562 2.085938 9.925781 2.535156 10.28125 2.921875 C 10.644531 3.304688 11.046875 3.617188 11.484375 3.859375 C 11.921875 4.097656 12.394531 4.21875 12.90625 4.21875 C 13.0625 4.21875 13.226562 4.210938 13.40625 4.203125 C 13.582031 4.203125 13.75 4.1875 13.90625 4.15625 Z M 13.9375 4.375 "/></g></g></g><g fill="#936d71" fill-opacity="1"><g transform="translate(281.287582, 205.37445)"><g><path d="M 3.296875 -1.578125 C 3.296875 -1.253906 3.351562 -0.9375 3.46875 -0.625 C 3.59375 -0.320312 3.820312 -0.113281 4.15625 0 L 0.71875 0 C 1.070312 -0.113281 1.296875 -0.332031 1.390625 -0.65625 C 1.492188 -0.976562 1.546875 -1.300781 1.546875 -1.625 L 1.546875 -9.234375 C 1.546875 -9.535156 1.488281 -9.832031 1.375 -10.125 C 1.269531 -10.414062 1.050781 -10.613281 0.71875 -10.71875 L 4.15625 -10.71875 C 3.820312 -10.632812 3.59375 -10.441406 3.46875 -10.140625 C 3.351562 -9.835938 3.296875 -9.535156 3.296875 -9.234375 L 3.296875 -4.375 C 4.003906 -4.375 4.613281 -4.488281 5.125 -4.71875 C 5.632812 -4.957031 6.050781 -5.285156 6.375 -5.703125 C 6.707031 -6.117188 6.953125 -6.601562 7.109375 -7.15625 C 7.265625 -7.71875 7.34375 -8.328125 7.34375 -8.984375 C 7.34375 -9.773438 7.226562 -10.5 7 -11.15625 C 6.769531 -11.820312 6.425781 -12.394531 5.96875 -12.875 C 5.519531 -13.363281 4.976562 -13.742188 4.34375 -14.015625 C 3.707031 -14.285156 2.984375 -14.421875 2.171875 -14.421875 C 1.171875 -14.421875 0.273438 -14.238281 -0.515625 -13.875 C -1.304688 -13.519531 -1.976562 -13.03125 -2.53125 -12.40625 C -3.09375 -11.78125 -3.519531 -11.046875 -3.8125 -10.203125 C -4.113281 -9.367188 -4.265625 -8.476562 -4.265625 -7.53125 C -4.265625 -6.78125 -4.15625 -6.050781 -3.9375 -5.34375 C -3.726562 -4.632812 -3.414062 -4.003906 -3 -3.453125 C -2.59375 -2.910156 -2.070312 -2.472656 -1.4375 -2.140625 C -0.8125 -1.816406 -0.09375 -1.65625 0.71875 -1.65625 L 0.71875 -1.46875 C -0.164062 -1.46875 -0.976562 -1.644531 -1.71875 -2 C -2.457031 -2.351562 -3.09375 -2.832031 -3.625 -3.4375 C -4.15625 -4.050781 -4.566406 -4.75 -4.859375 -5.53125 C -5.148438 -6.320312 -5.296875 -7.140625 -5.296875 -7.984375 C -5.296875 -9.003906 -5.085938 -9.921875 -4.671875 -10.734375 C -4.265625 -11.554688 -3.71875 -12.253906 -3.03125 -12.828125 C -2.351562 -13.398438 -1.570312 -13.835938 -0.6875 -14.140625 C 0.195312 -14.453125 1.117188 -14.609375 2.078125 -14.609375 C 2.921875 -14.609375 3.757812 -14.492188 4.59375 -14.265625 C 5.425781 -14.046875 6.171875 -13.707031 6.828125 -13.25 C 7.492188 -12.789062 8.03125 -12.207031 8.4375 -11.5 C 8.851562 -10.800781 9.0625 -9.976562 9.0625 -9.03125 C 9.0625 -8.175781 8.90625 -7.441406 8.59375 -6.828125 C 8.289062 -6.210938 7.875 -5.710938 7.34375 -5.328125 C 6.820312 -4.941406 6.210938 -4.65625 5.515625 -4.46875 C 4.828125 -4.289062 4.085938 -4.203125 3.296875 -4.203125 Z M 3.296875 -1.578125 "/></g></g></g><g fill="#936d71" fill-opacity="1"><g transform="translate(291.105937, 205.37445)"><g><path d="M 11.59375 -5.359375 C 11.59375 -4.617188 11.445312 -3.921875 11.15625 -3.265625 C 10.875 -2.609375 10.488281 -2.035156 10 -1.546875 C 9.519531 -1.054688 8.953125 -0.664062 8.296875 -0.375 C 7.640625 -0.09375 6.9375 0.046875 6.1875 0.046875 C 5.445312 0.046875 4.75 -0.09375 4.09375 -0.375 C 3.4375 -0.664062 2.863281 -1.054688 2.375 -1.546875 C 1.882812 -2.035156 1.492188 -2.609375 1.203125 -3.265625 C 0.921875 -3.921875 0.78125 -4.617188 0.78125 -5.359375 C 0.78125 -6.097656 0.921875 -6.796875 1.203125 -7.453125 C 1.492188 -8.109375 1.882812 -8.679688 2.375 -9.171875 C 2.863281 -9.660156 3.4375 -10.046875 4.09375 -10.328125 C 4.75 -10.617188 5.445312 -10.765625 6.1875 -10.765625 C 6.9375 -10.765625 7.640625 -10.617188 8.296875 -10.328125 C 8.953125 -10.046875 9.519531 -9.660156 10 -9.171875 C 10.488281 -8.679688 10.875 -8.109375 11.15625 -7.453125 C 11.445312 -6.796875 11.59375 -6.097656 11.59375 -5.359375 Z M 2.75 -5.625 C 2.75 -5.082031 2.816406 -4.484375 2.953125 -3.828125 C 3.097656 -3.179688 3.316406 -2.582031 3.609375 -2.03125 C 3.910156 -1.476562 4.296875 -1.015625 4.765625 -0.640625 C 5.234375 -0.273438 5.800781 -0.09375 6.46875 -0.09375 C 7.070312 -0.09375 7.582031 -0.257812 8 -0.59375 C 8.414062 -0.9375 8.75 -1.359375 9 -1.859375 C 9.257812 -2.367188 9.445312 -2.914062 9.5625 -3.5 C 9.675781 -4.082031 9.734375 -4.613281 9.734375 -5.09375 C 9.734375 -5.625 9.648438 -6.203125 9.484375 -6.828125 C 9.328125 -7.460938 9.09375 -8.0625 8.78125 -8.625 C 8.46875 -9.1875 8.070312 -9.65625 7.59375 -10.03125 C 7.125 -10.40625 6.578125 -10.59375 5.953125 -10.59375 C 5.347656 -10.59375 4.84375 -10.421875 4.4375 -10.078125 C 4.03125 -9.742188 3.703125 -9.328125 3.453125 -8.828125 C 3.203125 -8.328125 3.019531 -7.785156 2.90625 -7.203125 C 2.800781 -6.628906 2.75 -6.101562 2.75 -5.625 Z M 2.75 -5.625 "/></g></g></g><g fill="#936d71" fill-opacity="1"><g transform="translate(303.854483, 205.37445)"><g><path d="M 10.4375 -0.890625 C 10.4375 -0.140625 10.3125 0.539062 10.0625 1.15625 C 9.8125 1.78125 9.460938 2.3125 9.015625 2.75 C 8.578125 3.1875 8.039062 3.519531 7.40625 3.75 C 6.78125 3.988281 6.09375 4.109375 5.34375 4.109375 C 4.664062 4.109375 4.03125 4.003906 3.4375 3.796875 C 2.851562 3.597656 2.335938 3.304688 1.890625 2.921875 C 1.441406 2.535156 1.085938 2.0625 0.828125 1.5 C 0.566406 0.945312 0.4375 0.320312 0.4375 -0.375 C 0.4375 -1 0.550781 -1.550781 0.78125 -2.03125 C 1.019531 -2.507812 1.332031 -2.910156 1.71875 -3.234375 C 2.113281 -3.566406 2.570312 -3.8125 3.09375 -3.96875 C 3.625 -4.132812 4.179688 -4.21875 4.765625 -4.21875 L 4.75 -4.140625 C 4.238281 -4.066406 3.78125 -3.90625 3.375 -3.65625 C 2.976562 -3.414062 2.640625 -3.117188 2.359375 -2.765625 C 2.085938 -2.410156 1.878906 -2.003906 1.734375 -1.546875 C 1.585938 -1.097656 1.515625 -0.625 1.515625 -0.125 C 1.515625 0.425781 1.601562 0.941406 1.78125 1.421875 C 1.96875 1.898438 2.222656 2.320312 2.546875 2.6875 C 2.878906 3.050781 3.273438 3.332031 3.734375 3.53125 C 4.203125 3.738281 4.722656 3.84375 5.296875 3.84375 C 6.460938 3.84375 7.351562 3.507812 7.96875 2.84375 C 8.59375 2.1875 8.90625 1.289062 8.90625 0.15625 C 8.90625 -0.457031 8.757812 -1.015625 8.46875 -1.515625 C 8.175781 -2.023438 7.8125 -2.492188 7.375 -2.921875 C 6.9375 -3.347656 6.457031 -3.757812 5.9375 -4.15625 C 5.414062 -4.5625 4.9375 -4.972656 4.5 -5.390625 C 4.0625 -5.804688 3.695312 -6.25 3.40625 -6.71875 C 3.113281 -7.1875 2.96875 -7.695312 2.96875 -8.25 C 2.96875 -8.664062 3.046875 -9.046875 3.203125 -9.390625 C 3.367188 -9.734375 3.585938 -10.019531 3.859375 -10.25 C 4.140625 -10.488281 4.460938 -10.671875 4.828125 -10.796875 C 5.191406 -10.921875 5.582031 -10.984375 6 -10.984375 C 6.375 -10.984375 6.738281 -10.910156 7.09375 -10.765625 C 7.457031 -10.617188 7.828125 -10.546875 8.203125 -10.546875 C 8.410156 -10.546875 8.597656 -10.632812 8.765625 -10.8125 L 8.515625 -7.96875 C 8.453125 -8.257812 8.347656 -8.570312 8.203125 -8.90625 C 8.054688 -9.238281 7.875 -9.546875 7.65625 -9.828125 C 7.4375 -10.117188 7.179688 -10.359375 6.890625 -10.546875 C 6.609375 -10.742188 6.300781 -10.84375 5.96875 -10.84375 C 5.425781 -10.84375 4.960938 -10.695312 4.578125 -10.40625 C 4.191406 -10.113281 4 -9.675781 4 -9.09375 C 4 -8.632812 4.160156 -8.195312 4.484375 -7.78125 C 4.804688 -7.375 5.203125 -6.972656 5.671875 -6.578125 C 6.148438 -6.191406 6.664062 -5.796875 7.21875 -5.390625 C 7.769531 -4.992188 8.28125 -4.566406 8.75 -4.109375 C 9.226562 -3.660156 9.628906 -3.171875 9.953125 -2.640625 C 10.273438 -2.117188 10.4375 -1.535156 10.4375 -0.890625 Z M 10.4375 -0.890625 "/></g></g></g><g fill="#936d71" fill-opacity="1"><g transform="translate(128.543359, 259.414452)"><g><path d="M 5.75 -2.734375 C 5.75 -2.191406 5.832031 -1.648438 6 -1.109375 C 6.175781 -0.566406 6.554688 -0.195312 7.140625 0 L 1.140625 0 C 1.722656 -0.195312 2.097656 -0.550781 2.265625 -1.0625 C 2.441406 -1.582031 2.53125 -2.113281 2.53125 -2.65625 L 2.53125 -13.4375 C 2.53125 -13.957031 2.4375 -14.457031 2.25 -14.9375 C 2.070312 -15.414062 1.703125 -15.738281 1.140625 -15.90625 L 13.1875 -15.90625 L 14.0625 -11.78125 C 13.257812 -13.1875 12.195312 -14.179688 10.875 -14.765625 C 9.550781 -15.359375 8.113281 -15.65625 6.5625 -15.65625 L 5.75 -15.65625 L 5.75 -8.21875 C 6.175781 -8.21875 6.601562 -8.273438 7.03125 -8.390625 C 7.46875 -8.515625 7.875 -8.6875 8.25 -8.90625 C 8.632812 -9.132812 8.972656 -9.410156 9.265625 -9.734375 C 9.554688 -10.066406 9.769531 -10.445312 9.90625 -10.875 L 9.90625 -5.484375 C 9.769531 -5.898438 9.554688 -6.265625 9.265625 -6.578125 C 8.972656 -6.890625 8.628906 -7.144531 8.234375 -7.34375 C 7.847656 -7.550781 7.4375 -7.703125 7 -7.796875 C 6.570312 -7.898438 6.164062 -7.953125 5.78125 -7.953125 L 5.75 -7.953125 Z M 5.75 -2.734375 "/></g></g></g><g fill="#936d71" fill-opacity="1"><g transform="translate(143.572735, 259.414452)"><g><path d="M 20.96875 2.375 C 20.300781 3.019531 19.570312 3.550781 18.78125 3.96875 C 17.988281 4.394531 17.117188 4.609375 16.171875 4.609375 C 15.472656 4.609375 14.832031 4.492188 14.25 4.265625 C 13.664062 4.035156 13.097656 3.75 12.546875 3.40625 C 11.992188 3.0625 11.445312 2.691406 10.90625 2.296875 C 10.363281 1.910156 9.78125 1.546875 9.15625 1.203125 C 8.53125 0.859375 7.847656 0.570312 7.109375 0.34375 C 6.367188 0.113281 5.535156 0 4.609375 0 L 1.078125 0 C 1.378906 -0.0625 1.613281 -0.191406 1.78125 -0.390625 C 1.957031 -0.585938 2.097656 -0.804688 2.203125 -1.046875 C 2.316406 -1.296875 2.390625 -1.5625 2.421875 -1.84375 C 2.453125 -2.125 2.46875 -2.394531 2.46875 -2.65625 L 2.46875 -13.4375 C 2.46875 -13.695312 2.445312 -13.957031 2.40625 -14.21875 C 2.363281 -14.476562 2.289062 -14.722656 2.1875 -14.953125 C 2.09375 -15.179688 1.953125 -15.378906 1.765625 -15.546875 C 1.585938 -15.722656 1.359375 -15.84375 1.078125 -15.90625 L 7.078125 -15.90625 C 6.515625 -15.757812 6.140625 -15.4375 5.953125 -14.9375 C 5.773438 -14.4375 5.6875 -13.9375 5.6875 -13.4375 L 5.6875 -0.296875 C 6.695312 -0.222656 7.679688 -0.015625 8.640625 0.328125 C 9.609375 0.671875 10.566406 1.035156 11.515625 1.421875 C 12.472656 1.816406 13.425781 2.175781 14.375 2.5 C 15.332031 2.820312 16.3125 2.984375 17.3125 2.984375 C 17.9375 2.984375 18.546875 2.921875 19.140625 2.796875 C 19.734375 2.679688 20.3125 2.492188 20.875 2.234375 Z M 20.96875 2.375 "/></g></g></g><g fill="#936d71" fill-opacity="1"><g transform="translate(152.174835, 259.414452)"><g><path d="M 17.203125 -7.953125 C 17.203125 -6.847656 16.988281 -5.804688 16.5625 -4.828125 C 16.144531 -3.859375 15.570312 -3.007812 14.84375 -2.28125 C 14.125 -1.5625 13.273438 -0.988281 12.296875 -0.5625 C 11.328125 -0.144531 10.289062 0.0625 9.1875 0.0625 C 8.082031 0.0625 7.039062 -0.144531 6.0625 -0.5625 C 5.09375 -0.988281 4.242188 -1.5625 3.515625 -2.28125 C 2.796875 -3.007812 2.222656 -3.859375 1.796875 -4.828125 C 1.378906 -5.804688 1.171875 -6.847656 1.171875 -7.953125 C 1.171875 -9.054688 1.378906 -10.09375 1.796875 -11.0625 C 2.222656 -12.039062 2.796875 -12.890625 3.515625 -13.609375 C 4.242188 -14.335938 5.09375 -14.910156 6.0625 -15.328125 C 7.039062 -15.753906 8.082031 -15.96875 9.1875 -15.96875 C 10.289062 -15.96875 11.328125 -15.753906 12.296875 -15.328125 C 13.273438 -14.910156 14.125 -14.335938 14.84375 -13.609375 C 15.570312 -12.890625 16.144531 -12.039062 16.5625 -11.0625 C 16.988281 -10.09375 17.203125 -9.054688 17.203125 -7.953125 Z M 4.734375 -8.34375 C 4.734375 -7.601562 4.804688 -6.765625 4.953125 -5.828125 C 5.109375 -4.890625 5.375 -4 5.75 -3.15625 C 6.132812 -2.3125 6.640625 -1.59375 7.265625 -1 C 7.898438 -0.414062 8.679688 -0.125 9.609375 -0.125 C 10.429688 -0.125 11.113281 -0.394531 11.65625 -0.9375 C 12.195312 -1.476562 12.625 -2.132812 12.9375 -2.90625 C 13.25 -3.675781 13.46875 -4.488281 13.59375 -5.34375 C 13.726562 -6.195312 13.796875 -6.9375 13.796875 -7.5625 C 13.796875 -8.257812 13.695312 -9.070312 13.5 -10 C 13.3125 -10.925781 13.015625 -11.8125 12.609375 -12.65625 C 12.210938 -13.5 11.695312 -14.21875 11.0625 -14.8125 C 10.4375 -15.414062 9.691406 -15.71875 8.828125 -15.71875 C 8.023438 -15.71875 7.359375 -15.445312 6.828125 -14.90625 C 6.304688 -14.363281 5.882812 -13.710938 5.5625 -12.953125 C 5.25 -12.191406 5.03125 -11.390625 4.90625 -10.546875 C 4.789062 -9.703125 4.734375 -8.96875 4.734375 -8.34375 Z M 4.734375 -8.34375 "/></g></g></g><g fill="#936d71" fill-opacity="1"><g transform="translate(170.937216, 259.414452)"><g><path d="M 30.15625 8.078125 C 29.875 8.128906 29.597656 8.164062 29.328125 8.1875 C 29.066406 8.207031 28.789062 8.21875 28.5 8.21875 C 26.96875 8.21875 25.585938 7.929688 24.359375 7.359375 C 23.140625 6.785156 22.046875 6.015625 21.078125 5.046875 C 20.117188 4.085938 19.257812 2.976562 18.5 1.71875 C 17.75 0.46875 17.0625 -0.828125 16.4375 -2.171875 C 15.820312 -3.515625 15.257812 -4.859375 14.75 -6.203125 C 14.25 -7.546875 13.757812 -8.789062 13.28125 -9.9375 L 9.90625 0 L 3.921875 -13.25 C 3.734375 -13.675781 3.460938 -14.164062 3.109375 -14.71875 C 2.765625 -15.269531 2.390625 -15.664062 1.984375 -15.90625 L 8.546875 -15.90625 C 8.148438 -15.78125 7.847656 -15.53125 7.640625 -15.15625 C 7.441406 -14.789062 7.34375 -14.414062 7.34375 -14.03125 C 7.34375 -13.832031 7.421875 -13.503906 7.578125 -13.046875 C 7.742188 -12.597656 7.953125 -12.070312 8.203125 -11.46875 C 8.453125 -10.875 8.726562 -10.25 9.03125 -9.59375 C 9.332031 -8.9375 9.628906 -8.300781 9.921875 -7.6875 C 10.210938 -7.082031 10.484375 -6.53125 10.734375 -6.03125 C 10.984375 -5.539062 11.160156 -5.164062 11.265625 -4.90625 L 13.15625 -10.265625 C 12.65625 -11.347656 12.140625 -12.484375 11.609375 -13.671875 C 11.078125 -14.859375 10.441406 -15.945312 9.703125 -16.9375 C 8.972656 -17.9375 8.109375 -18.757812 7.109375 -19.40625 C 6.109375 -20.0625 4.882812 -20.390625 3.4375 -20.390625 C 2.988281 -20.390625 2.53125 -20.347656 2.0625 -20.265625 C 1.59375 -20.191406 1.144531 -20.101562 0.71875 -20 L 0.609375 -20.234375 C 1.222656 -20.359375 1.832031 -20.457031 2.4375 -20.53125 C 3.039062 -20.613281 3.65625 -20.65625 4.28125 -20.65625 C 5.800781 -20.65625 7.164062 -20.421875 8.375 -19.953125 C 9.582031 -19.484375 10.664062 -18.851562 11.625 -18.0625 C 12.59375 -17.28125 13.453125 -16.359375 14.203125 -15.296875 C 14.953125 -14.234375 15.628906 -13.097656 16.234375 -11.890625 C 16.835938 -10.691406 17.378906 -9.457031 17.859375 -8.1875 C 18.335938 -6.925781 18.789062 -5.703125 19.21875 -4.515625 C 19.300781 -4.753906 19.4375 -5.144531 19.625 -5.6875 C 19.8125 -6.226562 20.03125 -6.832031 20.28125 -7.5 C 20.53125 -8.164062 20.78125 -8.867188 21.03125 -9.609375 C 21.289062 -10.347656 21.523438 -11.035156 21.734375 -11.671875 C 21.941406 -12.304688 22.113281 -12.859375 22.25 -13.328125 C 22.394531 -13.796875 22.46875 -14.09375 22.46875 -14.21875 C 22.46875 -14.582031 22.347656 -14.925781 22.109375 -15.25 C 21.867188 -15.582031 21.566406 -15.800781 21.203125 -15.90625 L 25 -15.90625 C 24.78125 -15.84375 24.546875 -15.71875 24.296875 -15.53125 C 24.046875 -15.351562 23.800781 -15.148438 23.5625 -14.921875 C 23.332031 -14.691406 23.125 -14.457031 22.9375 -14.21875 C 22.75 -13.976562 22.625 -13.753906 22.5625 -13.546875 L 19.34375 -3.96875 C 19.4375 -3.769531 19.519531 -3.570312 19.59375 -3.375 C 19.664062 -3.175781 19.75 -2.972656 19.84375 -2.765625 L 20.78125 -0.390625 C 21.144531 0.515625 21.53125 1.457031 21.9375 2.4375 C 22.351562 3.425781 22.863281 4.328125 23.46875 5.140625 C 24.082031 5.953125 24.800781 6.617188 25.625 7.140625 C 26.445312 7.660156 27.441406 7.921875 28.609375 7.921875 C 28.847656 7.921875 29.09375 7.910156 29.34375 7.890625 C 29.601562 7.867188 29.851562 7.835938 30.09375 7.796875 Z M 30.15625 8.078125 "/></g></g></g><g fill="#936d71" fill-opacity="1"><g transform="translate(198.464066, 259.414452)"><g><path d="M 29.671875 2.4375 C 28.660156 3.34375 27.609375 4.039062 26.515625 4.53125 C 25.421875 5.019531 24.179688 5.265625 22.796875 5.265625 C 21.835938 5.265625 20.898438 5.132812 19.984375 4.875 C 19.066406 4.613281 18.140625 4.285156 17.203125 3.890625 C 16.273438 3.503906 15.328125 3.082031 14.359375 2.625 C 13.398438 2.175781 12.40625 1.753906 11.375 1.359375 C 10.351562 0.972656 9.285156 0.648438 8.171875 0.390625 C 7.054688 0.128906 5.878906 0 4.640625 0 L 1.109375 0 C 1.390625 -0.0820312 1.617188 -0.222656 1.796875 -0.421875 C 1.984375 -0.617188 2.125 -0.84375 2.21875 -1.09375 C 2.320312 -1.34375 2.390625 -1.609375 2.421875 -1.890625 C 2.453125 -2.171875 2.46875 -2.4375 2.46875 -2.6875 L 2.46875 -13.4375 C 2.46875 -13.9375 2.378906 -14.429688 2.203125 -14.921875 C 2.035156 -15.410156 1.671875 -15.738281 1.109375 -15.90625 L 13.15625 -15.90625 L 14 -11.78125 C 13.601562 -12.476562 13.132812 -13.070312 12.59375 -13.5625 C 12.050781 -14.0625 11.457031 -14.460938 10.8125 -14.765625 C 10.164062 -15.078125 9.472656 -15.300781 8.734375 -15.4375 C 7.992188 -15.582031 7.25 -15.65625 6.5 -15.65625 L 5.71875 -15.65625 L 5.71875 -8.21875 L 6 -8.21875 C 6.914062 -8.21875 7.710938 -8.4375 8.390625 -8.875 C 9.078125 -9.320312 9.570312 -9.988281 9.875 -10.875 L 9.875 -5.484375 C 9.550781 -6.441406 9.023438 -7.09375 8.296875 -7.4375 C 7.566406 -7.78125 6.738281 -7.953125 5.8125 -7.953125 L 5.71875 -7.953125 L 5.71875 -0.296875 C 7.320312 -0.296875 8.890625 -0.0976562 10.421875 0.296875 C 11.960938 0.703125 13.492188 1.140625 15.015625 1.609375 C 16.546875 2.078125 18.078125 2.507812 19.609375 2.90625 C 21.148438 3.300781 22.734375 3.5 24.359375 3.5 C 25.265625 3.5 26.160156 3.394531 27.046875 3.1875 C 27.929688 2.988281 28.773438 2.671875 29.578125 2.234375 Z M 29.671875 2.4375 "/></g></g></g><g fill="#936d71" fill-opacity="1"><g transform="translate(212.779296, 259.414452)"><g><path d="M 23.796875 2.859375 C 22.410156 4.128906 20.773438 4.765625 18.890625 4.765625 C 17.722656 4.765625 16.75 4.492188 15.96875 3.953125 C 15.195312 3.421875 14.515625 2.742188 13.921875 1.921875 C 13.335938 1.097656 12.804688 0.21875 12.328125 -0.71875 C 11.859375 -1.664062 11.347656 -2.550781 10.796875 -3.375 C 10.242188 -4.195312 9.609375 -4.878906 8.890625 -5.421875 C 8.179688 -5.960938 7.304688 -6.234375 6.265625 -6.234375 L 5.71875 -6.234375 L 5.71875 -5.578125 L 5.75 -4.21875 L 5.75 -3.578125 C 5.75 -3.242188 5.75 -2.898438 5.75 -2.546875 C 5.75 -2.191406 5.789062 -1.835938 5.875 -1.484375 C 5.957031 -1.140625 6.09375 -0.835938 6.28125 -0.578125 C 6.46875 -0.316406 6.753906 -0.125 7.140625 0 L 1.140625 0 C 1.441406 -0.0820312 1.675781 -0.222656 1.84375 -0.421875 C 2.019531 -0.617188 2.160156 -0.832031 2.265625 -1.0625 C 2.378906 -1.300781 2.453125 -1.5625 2.484375 -1.84375 C 2.515625 -2.125 2.53125 -2.394531 2.53125 -2.65625 L 2.53125 -13.4375 C 2.53125 -13.9375 2.4375 -14.429688 2.25 -14.921875 C 2.070312 -15.410156 1.703125 -15.738281 1.140625 -15.90625 L 7.015625 -15.90625 C 7.796875 -15.90625 8.566406 -15.820312 9.328125 -15.65625 C 10.097656 -15.5 10.796875 -15.226562 11.421875 -14.84375 C 12.054688 -14.46875 12.566406 -13.972656 12.953125 -13.359375 C 13.347656 -12.742188 13.546875 -11.984375 13.546875 -11.078125 C 13.546875 -10.253906 13.367188 -9.535156 13.015625 -8.921875 C 12.671875 -8.316406 12.210938 -7.816406 11.640625 -7.421875 C 11.066406 -7.035156 10.421875 -6.742188 9.703125 -6.546875 C 8.992188 -6.359375 8.269531 -6.265625 7.53125 -6.265625 C 8.375 -6.179688 9.160156 -5.878906 9.890625 -5.359375 C 10.628906 -4.835938 11.34375 -4.210938 12.03125 -3.484375 C 12.726562 -2.765625 13.410156 -1.992188 14.078125 -1.171875 C 14.753906 -0.347656 15.441406 0.40625 16.140625 1.09375 C 16.847656 1.789062 17.597656 2.363281 18.390625 2.8125 C 19.179688 3.269531 20.03125 3.5 20.9375 3.5 C 21.414062 3.5 21.890625 3.414062 22.359375 3.25 C 22.835938 3.09375 23.285156 2.894531 23.703125 2.65625 Z M 5.71875 -6.5 L 6.5 -6.5 C 7.1875 -6.5 7.785156 -6.613281 8.296875 -6.84375 C 8.804688 -7.082031 9.222656 -7.40625 9.546875 -7.8125 C 9.867188 -8.226562 10.101562 -8.710938 10.25 -9.265625 C 10.40625 -9.816406 10.484375 -10.421875 10.484375 -11.078125 C 10.484375 -12.441406 10.1875 -13.546875 9.59375 -14.390625 C 9 -15.234375 7.96875 -15.65625 6.5 -15.65625 L 5.71875 -15.65625 Z M 5.71875 -6.5 "/></g></g></g><g fill="#936d71" fill-opacity="1"><g transform="translate(226.672538, 259.414452)"><g><path d="M 15.75 -1.59375 C 15.75 -0.425781 15.550781 0.628906 15.15625 1.578125 C 14.769531 2.535156 14.226562 3.34375 13.53125 4 C 12.84375 4.664062 12.015625 5.179688 11.046875 5.546875 C 10.085938 5.921875 9.035156 6.109375 7.890625 6.109375 C 6.890625 6.109375 5.953125 5.953125 5.078125 5.640625 C 4.203125 5.335938 3.429688 4.90625 2.765625 4.34375 C 2.109375 3.78125 1.59375 3.082031 1.21875 2.25 C 0.84375 1.414062 0.65625 0.484375 0.65625 -0.546875 C 0.65625 -1.410156 0.820312 -2.195312 1.15625 -2.90625 C 1.488281 -3.613281 1.941406 -4.207031 2.515625 -4.6875 C 3.085938 -5.175781 3.742188 -5.554688 4.484375 -5.828125 C 5.234375 -6.097656 6.019531 -6.242188 6.84375 -6.265625 L 6.84375 -6.140625 C 5.394531 -5.765625 4.316406 -5.035156 3.609375 -3.953125 C 2.910156 -2.878906 2.5625 -1.625 2.5625 -0.1875 C 2.5625 0.5625 2.6875 1.289062 2.9375 2 C 3.1875 2.71875 3.535156 3.351562 3.984375 3.90625 C 4.441406 4.457031 4.992188 4.894531 5.640625 5.21875 C 6.296875 5.550781 7.023438 5.71875 7.828125 5.71875 C 9.515625 5.71875 10.785156 5.25 11.640625 4.3125 C 12.492188 3.382812 12.921875 2.097656 12.921875 0.453125 C 12.921875 -0.453125 12.695312 -1.253906 12.25 -1.953125 C 11.8125 -2.660156 11.253906 -3.320312 10.578125 -3.9375 C 9.910156 -4.5625 9.191406 -5.148438 8.421875 -5.703125 C 7.648438 -6.253906 6.929688 -6.832031 6.265625 -7.4375 C 5.597656 -8.039062 5.039062 -8.691406 4.59375 -9.390625 C 4.144531 -10.097656 3.921875 -10.882812 3.921875 -11.75 C 3.921875 -12.46875 4.054688 -13.109375 4.328125 -13.671875 C 4.597656 -14.234375 4.96875 -14.707031 5.4375 -15.09375 C 5.90625 -15.488281 6.441406 -15.785156 7.046875 -15.984375 C 7.648438 -16.191406 8.289062 -16.296875 8.96875 -16.296875 C 9.175781 -16.296875 9.382812 -16.273438 9.59375 -16.234375 C 9.800781 -16.191406 10 -16.148438 10.1875 -16.109375 L 11 -15.84375 C 11.195312 -15.800781 11.398438 -15.757812 11.609375 -15.71875 C 11.816406 -15.675781 12.023438 -15.65625 12.234375 -15.65625 C 12.648438 -15.65625 12.988281 -15.804688 13.25 -16.109375 L 12.6875 -11.390625 C 12.601562 -11.804688 12.453125 -12.285156 12.234375 -12.828125 C 12.023438 -13.367188 11.753906 -13.878906 11.421875 -14.359375 C 11.097656 -14.847656 10.722656 -15.257812 10.296875 -15.59375 C 9.878906 -15.9375 9.421875 -16.109375 8.921875 -16.109375 C 8.128906 -16.109375 7.441406 -15.890625 6.859375 -15.453125 C 6.285156 -15.023438 6 -14.375 6 -13.5 C 6 -12.8125 6.238281 -12.164062 6.71875 -11.5625 C 7.195312 -10.957031 7.796875 -10.363281 8.515625 -9.78125 C 9.242188 -9.207031 10.03125 -8.632812 10.875 -8.0625 C 11.71875 -7.488281 12.5 -6.878906 13.21875 -6.234375 C 13.945312 -5.585938 14.550781 -4.882812 15.03125 -4.125 C 15.507812 -3.363281 15.75 -2.519531 15.75 -1.59375 Z M 15.75 -1.59375 "/></g></g></g><g clip-path="url(#7e848613b1)"><path fill="#936d71" d="M 200.316406 121.113281 L 201.121094 115.238281 L 205.699219 111.964844 C 204.472656 114.851562 202.679688 117.90625 200.316406 121.113281 Z M 167.734375 111.964844 L 172.308594 115.238281 L 173.117188 121.113281 C 170.753906 117.90625 168.957031 114.851562 167.734375 111.964844 Z M 166.042969 100.28125 C 166.21875 99.390625 166.476562 98.582031 166.777344 97.839844 L 168.769531 102.828125 L 165.808594 104.472656 C 165.707031 103.019531 165.777344 101.617188 166.042969 100.28125 Z M 171.472656 91.941406 C 171.730469 91.820312 171.988281 91.710938 172.246094 91.609375 L 174.085938 92.824219 L 168.257812 95.117188 C 169.792969 92.949219 171.472656 91.941406 171.472656 91.941406 Z M 177.542969 90.949219 L 175.386719 92.253906 L 173.699219 91.136719 C 174.507812 90.933594 175.308594 90.828125 176.097656 90.828125 C 176.59375 90.828125 177.078125 90.875 177.542969 90.949219 Z M 185.746094 96.644531 L 182.65625 97.335938 L 176.464844 92.996094 L 179.167969 91.363281 C 182.515625 92.535156 184.816406 95.332031 185.746094 96.644531 Z M 194.265625 91.359375 L 196.96875 92.996094 L 190.777344 97.335938 L 187.6875 96.644531 C 188.613281 95.332031 190.910156 92.53125 194.265625 91.359375 Z M 199.734375 91.136719 L 198.046875 92.253906 L 195.890625 90.949219 C 196.355469 90.875 196.839844 90.828125 197.339844 90.828125 C 198.128906 90.828125 198.933594 90.933594 199.734375 91.136719 Z M 205.179688 95.117188 L 199.347656 92.824219 L 201.1875 91.605469 C 201.433594 91.703125 201.675781 91.804688 201.917969 91.917969 C 201.945312 91.933594 203.640625 92.941406 205.179688 95.117188 Z M 200.824219 113.988281 L 198.765625 109.226562 L 203.71875 104.152344 L 206.230469 110.117188 Z M 190.570312 127.082031 L 191.820312 128.171875 C 190.621094 128.972656 189.492188 129.707031 188.574219 130.289062 Z M 182.863281 127.082031 L 184.859375 130.289062 C 183.941406 129.707031 182.8125 128.976562 181.613281 128.171875 Z M 169.714844 104.152344 L 174.667969 109.226562 L 172.609375 113.988281 L 167.203125 110.117188 Z M 174.78125 99.4375 L 169.8125 102.242188 L 167.582031 96.664062 L 174.78125 93.832031 Z M 175.964844 99.023438 L 175.964844 94.101562 L 181.125 97.714844 Z M 197.46875 94.101562 L 197.46875 99.023438 L 192.308594 97.714844 Z M 198.652344 100.808594 L 202.953125 103.234375 L 198.652344 107.636719 Z M 194.667969 115.480469 L 197.960938 110.351562 L 199.734375 114.460938 Z M 193.875 116.855469 L 199.871094 115.652344 L 198.910156 122.644531 L 191.339844 125.234375 Z M 186.714844 122.734375 L 189.703125 126.230469 L 186.714844 131.027344 L 183.730469 126.230469 Z M 179.558594 116.855469 L 182.09375 125.234375 L 174.523438 122.644531 L 173.5625 115.652344 Z M 175.472656 110.355469 L 178.761719 115.480469 L 173.699219 114.460938 Z M 174.78125 107.636719 L 170.480469 103.234375 L 174.78125 100.808594 Z M 183.25 124.960938 L 181.152344 118.039062 L 185.871094 121.894531 Z M 190.183594 124.960938 L 187.5625 121.894531 L 192.28125 118.039062 Z M 203.621094 102.242188 L 198.652344 99.4375 L 198.652344 93.832031 L 205.847656 96.664062 Z M 186.371094 101.507812 C 186.378906 101.511719 186.394531 101.515625 186.402344 101.523438 C 186.417969 101.535156 186.429688 101.546875 186.445312 101.554688 C 186.457031 101.558594 186.46875 101.558594 186.480469 101.5625 C 186.554688 101.597656 186.632812 101.617188 186.714844 101.617188 C 186.796875 101.617188 186.878906 101.597656 186.957031 101.5625 C 186.964844 101.558594 186.976562 101.558594 186.984375 101.554688 C 187.003906 101.546875 187.015625 101.535156 187.03125 101.523438 C 187.039062 101.515625 187.054688 101.511719 187.0625 101.507812 L 191.023438 98.625 L 197.46875 100.253906 L 197.46875 108.917969 L 192.964844 115.9375 L 186.714844 121.050781 L 180.46875 115.9375 L 175.964844 108.917969 L 175.964844 100.253906 L 182.40625 98.625 Z M 186.125 99.855469 L 183.949219 98.269531 L 186.125 97.78125 Z M 187.308594 97.78125 L 189.484375 98.269531 L 187.308594 99.855469 Z M 165.945312 105.757812 L 168.300781 104.453125 L 166.546875 108.617188 C 166.273438 107.644531 166.078125 106.691406 165.945312 105.757812 Z M 176.695312 124.648438 L 181.828125 126.402344 L 180.597656 127.480469 C 179.253906 126.5625 177.886719 125.582031 176.695312 124.648438 Z M 192.839844 127.480469 L 191.605469 126.402344 L 196.734375 124.652344 C 195.542969 125.582031 194.179688 126.5625 192.839844 127.480469 Z M 206.886719 108.617188 L 205.132812 104.453125 L 207.488281 105.761719 C 207.355469 106.691406 207.160156 107.644531 206.886719 108.617188 Z M 207.621094 104.472656 L 204.664062 102.828125 L 206.660156 97.835938 C 206.953125 98.570312 207.207031 99.371094 207.386719 100.253906 C 207.652344 101.601562 207.726562 103.007812 207.621094 104.472656 Z M 208.546875 100.015625 C 207.289062 93.722656 202.703125 90.996094 202.464844 90.859375 C 200.746094 90.046875 199.023438 89.636719 197.339844 89.636719 C 196.207031 89.636719 195.15625 89.820312 194.1875 90.125 C 194.183594 90.125 194.183594 90.125 194.179688 90.128906 C 190.328125 91.332031 187.753906 94.464844 186.714844 95.949219 C 185.679688 94.464844 183.105469 91.332031 179.253906 90.125 C 179.25 90.125 179.25 90.125 179.246094 90.125 C 178.273438 89.820312 177.226562 89.636719 176.097656 89.636719 C 174.414062 89.636719 172.6875 90.046875 170.925781 90.882812 C 170.730469 90.996094 166.144531 93.722656 164.886719 100.015625 C 164.558594 101.664062 164.492188 103.390625 164.679688 105.191406 C 164.566406 105.367188 164.542969 105.597656 164.648438 105.796875 C 164.683594 105.855469 164.726562 105.902344 164.773438 105.945312 C 165.484375 110.945312 168.117188 116.488281 172.671875 122.515625 C 175.191406 125.851562 185.957031 132.386719 186.410156 132.664062 C 186.417969 132.664062 186.417969 132.664062 186.421875 132.667969 C 186.453125 132.683594 186.484375 132.695312 186.519531 132.707031 C 186.53125 132.714844 186.542969 132.722656 186.558594 132.726562 C 186.5625 132.726562 186.5625 132.726562 186.566406 132.726562 C 186.613281 132.738281 186.660156 132.746094 186.707031 132.746094 C 186.710938 132.746094 186.710938 132.746094 186.714844 132.746094 C 186.714844 132.746094 186.714844 132.746094 186.71875 132.746094 C 186.71875 132.746094 186.722656 132.746094 186.726562 132.746094 C 186.773438 132.746094 186.820312 132.738281 186.867188 132.726562 C 186.871094 132.726562 186.875 132.726562 186.875 132.726562 C 186.890625 132.722656 186.898438 132.714844 186.914062 132.710938 C 186.945312 132.699219 186.980469 132.683594 187.011719 132.667969 C 187.015625 132.664062 187.019531 132.664062 187.023438 132.664062 C 187.476562 132.386719 198.242188 125.851562 200.761719 122.515625 C 205.316406 116.488281 207.949219 110.941406 208.65625 105.945312 C 208.707031 105.902344 208.75 105.855469 208.78125 105.796875 C 208.890625 105.597656 208.867188 105.371094 208.753906 105.191406 C 208.941406 103.390625 208.875 101.664062 208.546875 100.015625 " fill-opacity="1" fill-rule="nonzero"/></g></svg>